<svg xmlns="http://www.w3.org/2000/svg" xmlns:xlink="http://www.w3.org/1999/xlink" width="1000" zoomAndPan="magnify" viewBox="0 0 750 749.999995" height="1000" preserveAspectRatio="xMidYMid meet" version="1.0"><defs><g/><clipPath id="e0546a9389"><path d="M 474.585938 332 L 593.179688 332 L 593.179688 429.972656 L 474.585938 429.972656 Z M 474.585938 332 " clip-rule="nonzero"/></clipPath><clipPath id="373f9f6dbe"><path d="M 479.085938 332.503906 L 474.75 352.003906 L 577.890625 429.734375 L 593.015625 418.507812 Z M 479.085938 332.503906 " clip-rule="nonzero"/></clipPath><clipPath id="7fcde5cd1c"><path d="M 156 254.453125 L 481.699219 254.453125 L 481.699219 429 L 156 429 Z M 156 254.453125 " clip-rule="nonzero"/></clipPath><clipPath id="531853d5ed"><path d="M 481.402344 334.304688 L 375.589844 254.464844 L 156.523438 416.960938 L 172.050781 428.671875 L 375.992188 277.402344 L 480.488281 356.257812 Z M 481.402344 334.304688 " clip-rule="nonzero"/></clipPath><clipPath id="70b330fcd1"><path d="M 377.339844 343.003906 L 417.660156 343.003906 L 417.660156 374 L 377.339844 374 Z M 377.339844 343.003906 " clip-rule="nonzero"/></clipPath><clipPath id="91f22565b0"><path d="M 377.882812 373.902344 L 417.015625 373.902344 C 415.652344 357.207031 398.796875 343.921875 377.882812 343.214844 Z M 377.882812 373.902344 " clip-rule="nonzero"/></clipPath><clipPath id="a8572c4ef0"><path d="M 335 343.003906 L 373 343.003906 L 373 374 L 335 374 Z M 335 343.003906 " clip-rule="nonzero"/></clipPath><clipPath id="02bcf18a17"><path d="M 372.667969 373.902344 L 372.667969 343.3125 C 352.570312 344.664062 336.605469 357.683594 335.273438 373.902344 Z M 372.667969 373.902344 " clip-rule="nonzero"/></clipPath><clipPath id="07d567736b"><path d="M 335 378 L 373 378 L 373 409 L 335 409 Z M 335 378 " clip-rule="nonzero"/></clipPath><clipPath id="b1d5f9a351"><path d="M 372.667969 378.277344 L 335.273438 378.277344 C 336.605469 394.5 352.570312 407.515625 372.667969 408.867188 Z M 372.667969 378.277344 " clip-rule="nonzero"/></clipPath><clipPath id="2ba74221a0"><path d="M 377.339844 378 L 417.660156 378 L 417.660156 409 L 377.339844 409 Z M 377.339844 378 " clip-rule="nonzero"/></clipPath><clipPath id="aa66d7f944"><path d="M 377.882812 378.277344 L 377.882812 408.953125 C 398.796875 408.246094 415.652344 394.964844 417.015625 378.265625 Z M 377.882812 378.277344 " clip-rule="nonzero"/></clipPath><clipPath id="c786a8d232"><path d="M 244.511719 363 L 269 363 L 269 437.878906 L 244.511719 437.878906 Z M 244.511719 363 " clip-rule="nonzero"/></clipPath><clipPath id="b357fab9cb"><path d="M 244.550781 381.507812 L 245.101562 395.085938 C 245.101562 408.734375 247.757812 422.214844 253.023438 435.15625 C 253.546875 436.449219 255.019531 437.328125 256.691406 437.328125 C 258.359375 437.328125 259.824219 436.449219 260.359375 435.15625 C 265.613281 422.214844 268.28125 408.734375 268.28125 395.085938 L 268.28125 363.519531 Z M 244.550781 381.507812 " clip-rule="nonzero"/></clipPath><clipPath id="cc4315b222"><path d="M 229.492188 247 L 284 247 L 284 344.582031 L 229.492188 344.582031 Z M 229.492188 247 " clip-rule="nonzero"/></clipPath><clipPath id="26ca0a754a"><path d="M 283.40625 249.054688 C 282.808594 247.875 281.394531 247.105469 279.835938 247.105469 L 233.511719 247.105469 C 231.949219 247.105469 230.535156 247.886719 229.9375 249.054688 C 229.34375 250.226562 229.671875 251.601562 230.78125 252.515625 C 240.007812 260.097656 245.089844 270.175781 245.089844 280.890625 L 245.089844 344.324219 L 268.246094 328.1875 L 268.246094 280.890625 C 268.246094 270.175781 273.328125 260.097656 282.550781 252.515625 C 283.660156 251.613281 283.992188 250.25 283.394531 249.054688 " clip-rule="nonzero"/></clipPath></defs><g clip-path="url(#e0546a9389)"><g clip-path="url(#373f9f6dbe)"><path fill="#231f20" d="M 150.429688 241.011719 L 598.714844 241.011719 L 598.714844 443.410156 L 150.429688 443.410156 Z M 150.429688 241.011719 " fill-opacity="1" fill-rule="nonzero"/></g></g><g clip-path="url(#7fcde5cd1c)"><g clip-path="url(#531853d5ed)"><path fill="#231f20" d="M 150.429688 241.011719 L 598.714844 241.011719 L 598.714844 443.410156 L 150.429688 443.410156 Z M 150.429688 241.011719 " fill-opacity="1" fill-rule="nonzero"/></g></g><g clip-path="url(#70b330fcd1)"><g clip-path="url(#91f22565b0)"><path fill="#231f20" d="M 150.429688 241.011719 L 598.714844 241.011719 L 598.714844 443.410156 L 150.429688 443.410156 Z M 150.429688 241.011719 " fill-opacity="1" fill-rule="nonzero"/></g></g><g clip-path="url(#a8572c4ef0)"><g clip-path="url(#02bcf18a17)"><path fill="#231f20" d="M 150.429688 241.011719 L 598.714844 241.011719 L 598.714844 443.410156 L 150.429688 443.410156 Z M 150.429688 241.011719 " fill-opacity="1" fill-rule="nonzero"/></g></g><g clip-path="url(#07d567736b)"><g clip-path="url(#b1d5f9a351)"><path fill="#231f20" d="M 150.429688 241.011719 L 598.714844 241.011719 L 598.714844 443.410156 L 150.429688 443.410156 Z M 150.429688 241.011719 " fill-opacity="1" fill-rule="nonzero"/></g></g><g clip-path="url(#2ba74221a0)"><g clip-path="url(#aa66d7f944)"><path fill="#231f20" d="M 150.429688 241.011719 L 598.714844 241.011719 L 598.714844 443.410156 L 150.429688 443.410156 Z M 150.429688 241.011719 " fill-opacity="1" fill-rule="nonzero"/></g></g><g clip-path="url(#c786a8d232)"><g clip-path="url(#b357fab9cb)"><path fill="#231f20" d="M 150.429688 241.011719 L 598.714844 241.011719 L 598.714844 443.410156 L 150.429688 443.410156 Z M 150.429688 241.011719 " fill-opacity="1" fill-rule="nonzero"/></g></g><g clip-path="url(#cc4315b222)"><g clip-path="url(#26ca0a754a)"><path fill="#231f20" d="M 150.429688 241.011719 L 598.714844 241.011719 L 598.714844 443.410156 L 150.429688 443.410156 Z M 150.429688 241.011719 " fill-opacity="1" fill-rule="nonzero"/></g></g><g fill="#231f20" fill-opacity="1"><g transform="translate(160.300023, 495.909357)"><g><path d="M 37.671875 -19.796875 C 40.972656 -17.171875 42.625 -13.078125 42.625 -7.515625 L 42.625 0 L 29.046875 0 L 29.046875 -9.4375 C 29.046875 -13.46875 27.15625 -15.820312 23.375 -16.5 L 17.875 -16.5 L 17.875 0 L 3.03125 0 L 3.03125 -45.828125 L 27.21875 -45.828125 C 32.226562 -45.828125 36.09375 -44.554688 38.8125 -42.015625 C 41.53125 -39.484375 42.890625 -35.863281 42.890625 -31.15625 C 42.890625 -26.03125 41.148438 -22.242188 37.671875 -19.796875 Z M 25.203125 -27.5 C 28.140625 -27.5 29.609375 -28.628906 29.609375 -30.890625 C 29.609375 -33.210938 28.140625 -34.375 25.203125 -34.375 L 17.875 -34.375 L 17.875 -27.5 Z M 25.203125 -27.5 "/></g></g></g><g fill="#231f20" fill-opacity="1"><g transform="translate(209.700964, 495.909357)"><g><path d="M 17.875 -34.375 L 17.875 -28.40625 L 38.125 -28.40625 L 38.125 -17.40625 L 17.875 -17.40625 L 17.875 -11.453125 L 38.125 -11.453125 L 38.125 0 L 3.03125 0 L 3.03125 -45.828125 L 38.125 -45.828125 L 38.125 -34.375 Z M 17.875 -34.375 "/></g></g></g><g fill="#231f20" fill-opacity="1"><g transform="translate(254.886733, 495.909357)"><g><path d="M 35.921875 -23.734375 C 41.421875 -21.960938 44.171875 -18.359375 44.171875 -12.921875 C 44.171875 -8.828125 42.457031 -5.648438 39.03125 -3.390625 C 35.613281 -1.128906 30.726562 0 24.375 0 L 3.03125 0 L 3.03125 -45.828125 L 26.859375 -45.828125 C 31.617188 -45.828125 35.28125 -44.710938 37.84375 -42.484375 C 40.414062 -40.253906 41.703125 -37.0625 41.703125 -32.90625 C 41.703125 -28.5625 39.773438 -25.503906 35.921875 -23.734375 Z M 17.6875 -28.5 L 24.75 -28.5 C 27.007812 -28.5 28.140625 -29.414062 28.140625 -31.25 C 28.140625 -33.019531 27.007812 -34.0625 24.75 -34.375 L 17.6875 -34.375 Z M 25.65625 -11.453125 C 28.34375 -11.453125 29.6875 -12.523438 29.6875 -14.671875 C 29.6875 -16.867188 28.34375 -17.96875 25.65625 -17.96875 L 17.6875 -17.96875 L 17.6875 -11.453125 Z M 25.65625 -11.453125 "/></g></g></g><g fill="#231f20" fill-opacity="1"><g transform="translate(305.662182, 495.909357)"><g><path d="M 3.03125 -45.828125 L 17.875 -45.828125 L 17.875 -20.625 C 17.875 -17.9375 18.316406 -15.859375 19.203125 -14.390625 C 20.085938 -12.921875 21.351562 -12.1875 23 -12.1875 C 24.59375 -12.1875 25.816406 -12.921875 26.671875 -14.390625 C 27.523438 -15.859375 27.953125 -17.9375 27.953125 -20.625 L 27.953125 -45.828125 L 42.890625 -45.828125 L 42.890625 -20.625 C 42.890625 -13.84375 41.144531 -8.585938 37.65625 -4.859375 C 34.175781 -1.128906 29.257812 0.734375 22.90625 0.734375 C 16.550781 0.734375 11.648438 -1.128906 8.203125 -4.859375 C 4.753906 -8.585938 3.03125 -13.84375 3.03125 -20.625 Z M 3.03125 -45.828125 "/></g></g></g><g fill="#231f20" fill-opacity="1"><g transform="translate(355.521287, 495.909357)"><g><path d="M 17.875 -45.828125 L 17.875 0 L 3.03125 0 L 3.03125 -45.828125 Z M 17.875 -45.828125 "/></g></g></g><g fill="#231f20" fill-opacity="1"><g transform="translate(380.455897, 495.909357)"><g><path d="M 38.125 -12.828125 L 38.125 0 L 3.03125 0 L 3.03125 -45.828125 L 17.875 -45.828125 L 17.875 -12.828125 Z M 38.125 -12.828125 "/></g></g></g><g fill="#231f20" fill-opacity="1"><g transform="translate(425.183486, 495.909357)"><g><path d="M 21.359375 -45.828125 C 28.265625 -45.828125 33.578125 -43.835938 37.296875 -39.859375 C 41.023438 -35.890625 42.890625 -30.238281 42.890625 -22.90625 C 42.890625 -15.582031 41.023438 -9.929688 37.296875 -5.953125 C 33.578125 -1.984375 28.265625 0 21.359375 0 L 3.03125 0 L 3.03125 -45.828125 Z M 22.265625 -12.828125 C 24.160156 -12.828125 25.628906 -13.710938 26.671875 -15.484375 C 27.710938 -17.253906 28.234375 -19.726562 28.234375 -22.90625 C 28.234375 -26.144531 27.710938 -28.632812 26.671875 -30.375 C 25.628906 -32.125 24.160156 -33 22.265625 -33 L 17.875 -33 L 17.875 -12.828125 Z M 22.265625 -12.828125 "/></g></g></g><g fill="#231f20" fill-opacity="1"><g transform="translate(474.401156, 495.909357)"><g><path d="M 17.875 -45.828125 L 17.875 0 L 3.03125 0 L 3.03125 -45.828125 Z M 17.875 -45.828125 "/></g></g></g><g fill="#231f20" fill-opacity="1"><g transform="translate(499.335766, 495.909357)"><g><path d="M 3.03125 0 L 3.03125 -45.921875 L 15.578125 -45.921875 L 27.953125 -24.65625 L 27.953125 -45.828125 L 42.890625 -45.828125 L 42.890625 0 L 30.34375 -0.09375 L 17.875 -21.265625 L 17.875 0 Z M 3.03125 0 "/></g></g></g><g fill="#231f20" fill-opacity="1"><g transform="translate(549.194871, 495.909357)"><g><path d="M 43.90625 0 L 37.296875 0 L 35.65625 -5.046875 C 32.113281 -1.191406 27.988281 0.734375 23.28125 0.734375 C 16.625 0.734375 11.488281 -1.328125 7.875 -5.453125 C 4.269531 -9.578125 2.46875 -15.394531 2.46875 -22.90625 C 2.46875 -30.488281 4.269531 -36.328125 7.875 -40.421875 C 11.488281 -44.515625 16.625 -46.5625 23.28125 -46.5625 C 29.019531 -46.5625 33.628906 -45.0625 37.109375 -42.0625 C 40.597656 -39.070312 42.800781 -34.828125 43.71875 -29.328125 L 29.234375 -26.765625 C 28.503906 -31.410156 26.550781 -33.734375 23.375 -33.734375 C 21.351562 -33.734375 19.804688 -32.800781 18.734375 -30.9375 C 17.671875 -29.070312 17.140625 -26.394531 17.140625 -22.90625 C 17.140625 -19.488281 17.671875 -16.847656 18.734375 -14.984375 C 19.804688 -13.117188 21.351562 -12.1875 23.375 -12.1875 C 25.082031 -12.1875 26.394531 -13.5 27.3125 -16.125 L 23.09375 -16.125 L 23.09375 -24.28125 L 44.171875 -24.28125 Z M 43.90625 0 "/></g></g></g></svg>